<svg width="107" height="106" viewBox="0 0 107 106" fill="none" xmlns="http://www.w3.org/2000/svg">
<path d="M8.9502 0V8.54199H17.8799V0H26.8145V8.54199H35.5684V0H44.5029V8.54199H53.0244V0H61.9639V8.54199H70.6602V0H79.5947V8.56836H88.1846V0.0263672H97.1191V8.58496H106.049V18.1348H97.1191V26.3643H106.049V35.915H97.0977V43.873H106.049V53.4238H97.0869V61.3828H106.049V70.9326H97.0869V79.1035H106.049V88.6543H97.0869V96.5645H106.049V105.94H96.4453V97.1748H88.4922V105.94H78.8633V97.1748H70.9834V105.94H61.3594V97.1748H53.3477V105.94H43.7236V97.1748H35.5576V105.94H25.9287V97.0107H18.1982V105.94H8.56836V97.0107H0V88.1289H8.56836V79.2686H0V70.3916H8.56836V61.7539H0V52.8721H8.56836V44.2344H0V35.3574H8.58496V26.6348H0V17.7588H8.5957V8.87695H0V0H8.9502ZM26.8145 88.6377L26.793 96.5645H35.1445V88.6377H26.8145ZM44.1475 88.6006L44.0791 96.5645H53.0244V88.6006H44.1475ZM79.2344 88.6377L79.2178 96.5645H88.1689V88.6377H79.2344ZM8.92969 88.4844V96.3633H17.8799L17.8584 88.4844H8.92969ZM61.9795 88.4473L61.9424 96.3418H70.3262V88.4473H61.9795ZM70.9941 79.417L70.9834 88.2773H78.873V79.417H70.9941ZM88.5508 79.417V88.2773H96.5039V79.417H88.5508ZM35.5576 79.3906V88.251H43.7822L43.7236 79.3906H35.5576ZM53.4062 79.3906L53.3477 88.251H61.418V79.3906H53.4062ZM18.2188 79.252L18.1982 88.1133H25.9287V79.252H18.2188ZM26.8145 70.8955L26.793 79.0664H35.1445V70.8955H26.8145ZM79.2344 70.8955L79.2178 79.0664H88.1689V70.8955H79.2344ZM44.1475 70.8584L44.0791 79.0293H53.0244V70.8584H44.1475ZM8.92969 70.7422V78.9023H17.8799L17.8584 70.7422H8.92969ZM53.4062 26.6191V34.7705C52.4464 35.0552 51.518 35.413 50.6289 35.8408H44.1475L44.1094 41.0254C43.2744 42.0652 42.5491 43.1956 41.9492 44.3984H35.5576V53.0049H40.0039C40.0585 56.2424 40.9291 59.2788 42.418 61.918H35.5576V70.5137H43.7822L43.7373 63.9414C47.1553 68.5125 52.6003 71.4678 58.7227 71.4678H61.9756L61.9424 78.8809H70.3262V70.7051H66.7461V61.1543H70.3262V53.1953H61.9795L61.9766 53.8047H53.6406V60.2275H60.3271V61.8809H53.4062L53.3916 63.9824C51.9249 63.3456 50.6419 62.4411 49.5908 61.3086H53.0244V53.3496H46.4336C46.424 53.1288 46.4189 52.9058 46.4189 52.6807C46.4189 49.0585 47.7166 45.9702 49.9297 43.7988H53.0244V41.6494C54.6935 40.8588 56.6166 40.4229 58.7227 40.4229H61.9678L61.959 43.6455H70.3203V35.6865H63.5361V34H61.4131V26.6191H53.4062ZM70.9941 61.9072L70.9834 70.5664H78.873V61.9072H70.9941ZM88.5508 61.9072V70.5664H96.5039V61.9072H88.5508ZM18.2188 61.7432L18.1982 70.3809H25.9287V61.7432H18.2188ZM26.8145 53.3867L26.793 61.3457H35.1445V53.3867H26.8145ZM79.2344 53.3867L79.2178 61.3457H88.1689V53.3867H79.2344ZM8.92969 53.2012V61.1592H17.8799L17.8584 53.2012H8.92969ZM53.4062 44.3721L53.3477 53.0576H61.418V44.3721H53.4062ZM70.9941 44.3984L70.9834 53.0576H78.873V44.3984H70.9941ZM88.5508 44.3984V53.0576H96.5039V44.3984H88.5508ZM18.2188 44.2344L18.1982 52.8721H25.9287V44.2344H18.2188ZM26.8145 35.8779L26.8037 43.8359H35.1602V35.8779H26.8145ZM79.2344 35.8779V43.8359H88.1689V35.8779H79.2344ZM8.93945 35.6914V43.6504H17.8799L17.874 35.6914H8.93945ZM35.5684 26.6455V35.5488H43.7344V26.6455H35.5684ZM70.9941 26.6455V35.5488H78.8789V26.6455H70.9941ZM88.5508 26.6611V35.5488H96.5039V26.6611H88.5508ZM18.2188 26.6348L18.209 35.3574H25.9443V26.6348H18.2188ZM26.8145 18.1191V26.3115H35.5684V18.1191H26.8145ZM44.5615 18.082L44.5029 26.3115H53.0244V18.082H44.5615ZM79.5947 18.1348V26.3115H88.1846V18.1348H79.5947ZM8.9502 18.1084V26.1416H17.8799V18.1084H8.9502ZM61.9795 18.0977V26.1416H70.6758V18.0977H61.9795ZM88.5508 8.90332V17.7852H96.5039V8.90332H88.5508ZM35.9082 8.88672V17.7637H43.7451V8.88672H35.9082ZM53.4062 8.86035L53.3691 17.7637H61.4072V8.86035H53.4062ZM70.9941 8.88672V17.7637H78.8945V8.88672H70.9941ZM18.2188 8.87695V17.7588H26.2783V8.87695H18.2188Z" fill="#C6975F"/>
<path d="M88.7988 17V88.8447H17V17H88.7988ZM58.7227 34C48.3987 34 40 42.4037 40 52.6807C40.0001 63.0646 48.3987 71.4678 58.7227 71.4678H66.7461V53.8047H53.6406V60.2275H60.3271V65.0449H58.7227C51.5013 65.0449 46.419 59.9601 46.4189 52.6807C46.4189 45.5082 51.5012 40.4229 58.7227 40.4229H63.5361V34H58.7227Z" fill="#C6975F"/>
</svg>
